<?xml version="1.0" encoding="utf-8"?>
<!-- Generator: Adobe Illustrator 16.0.4, SVG Export Plug-In . SVG Version: 6.00 Build 0)  -->
<!DOCTYPE svg PUBLIC "-//W3C//DTD SVG 1.1//EN" "http://www.w3.org/Graphics/SVG/1.1/DTD/svg11.dtd">
<svg version="1.1" xmlns="http://www.w3.org/2000/svg" xmlns:xlink="http://www.w3.org/1999/xlink" x="0px" y="0px" width="512px"
	 height="512px" viewBox="0 0 512 512" enable-background="new 0 0 512 512" xml:space="preserve">
<g id="Layer_2">
</g>
<g id="Layer_1">
	<path fill="none" d="M211.5,243l101.17,101.17c-7.99,1.53-16.24,2.33-24.67,2.33c-72.07,0-130.5-58.43-130.5-130.5
		c0-9.26,0.96-18.29,2.8-27H288c14.91,0,27,12.09,27,27s-12.09,27-27,27H211.5z"/>
	<path d="M363.85,341.35c16.181-11.81,29.801-26.92,39.881-44.35H387.85c-8.97,13.55-20.409,25.32-33.67,34.68l-42.51-42.51
		C335.01,277.27,351,253,351,225c0-39.76-32.24-72-72-72H170.15c23.36-35.25,63.39-58.5,108.85-58.5s85.49,23.25,108.85,58.5h15.881
		C378.83,109.95,332.3,81,279,81s-99.83,28.95-124.73,72H63l45,45h29.53c-1.66,8.75-2.53,17.77-2.53,27c0,79.53,64.47,144,144,144
		c12.42,0,24.48-1.57,35.97-4.53L373.5,423h72L363.85,341.35z M303.67,353.17c-7.99,1.53-16.24,2.33-24.67,2.33
		c-72.07,0-130.5-58.43-130.5-130.5c0-9.26,0.96-18.29,2.8-27H279c14.91,0,27,12.09,27,27s-12.09,27-27,27h-76.5L303.67,353.17z"/>
	<path fill="none" d="M211.5,243l101.17,101.17c-7.99,1.53-16.24,2.33-24.67,2.33c-72.07,0-130.5-58.43-130.5-130.5
		c0-9.26,0.96-18.29,2.8-27H288c14.91,0,27,12.09,27,27s-12.09,27-27,27H211.5z"/>
	<line fill="none" x1="323.97" y1="355.47" x2="312.67" y2="344.17"/>
</g>
</svg>
